<svg version="1.1" xmlns="http://www.w3.org/2000/svg" style="display: block;" viewBox="0 0 2048 2048" width="892" height="892" preserveAspectRatio="none">
<path transform="translate(0,0)" fill="rgb(128,1,24)" d="M 978.146 0 L 1069.92 0 C 1086.66 3.3393 1109.41 2.94223 1127.04 4.84936 C 1168.94 9.23835 1210.55 16.0763 1251.65 25.328 C 1500.97 82.1792 1720.06 230.142 1865.92 440.188 C 1951.51 563.551 2008.89 704.239 2034 852.268 C 2038.43 878.112 2041.78 904.129 2044.04 930.252 C 2044.96 940.569 2046.18 966.325 2048 975.186 L 2048 1073.88 L 2047.82 1074.93 C 2045.24 1091.24 2044.31 1117.66 2042.37 1135.77 C 2038.24 1172.94 2032.12 1209.86 2024.06 1246.38 C 1970.14 1488.85 1829.94 1703.46 1629.55 1850.24 C 1503.3 1942.99 1357.35 2005.39 1203.06 2032.59 C 1176.36 2037.33 1149.47 2041.02 1122.48 2043.65 C 1111.78 2044.67 1082.29 2046.15 1073.66 2048 L 975.415 2048 C 964.582 2045.56 936.804 2044.85 924.336 2043.53 C 898.782 2040.84 874.479 2037.71 849.107 2033.26 C 697.117 2006.89 553.031 1946.58 427.568 1856.83 C 221.931 1709.65 78.0493 1491.56 23.6514 1244.61 C 15.3174 1206.85 9.10351 1168.66 5.03891 1130.21 C 3.15427 1111.4 3.277 1087.34 0 1069.56 L 0 978.202 C 2.10484 967.706 2.82532 942.181 3.92153 929.794 C 6.4227 904.362 9.75988 879.02 13.9276 853.808 C 38.6111 707.063 94.9879 567.463 179.131 444.731 C 324.645 232.177 545.046 82.4028 796.244 25.37 C 835.274 16.5199 874.776 9.90226 914.56 5.54918 C 933.387 3.57804 960.575 3.62317 978.146 0 z"/>
<path transform="translate(0,0)" fill="rgb(254,252,253)" d="M 334.752 375.996 C 340.772 375.145 346.802 375.266 352.887 375.211 L 646.553 715.132 L 730.397 812.194 C 746.759 831.223 766.947 855.945 784.146 873.509 C 781.173 852.393 782.669 813.755 782.607 791.028 L 783.742 608.916 C 784.452 556.237 783.306 502.889 783.771 450.166 C 783.986 425.777 783.151 399.879 784.303 375.656 C 791.382 375.108 794.652 375.299 801.764 375.788 C 802.25 389.745 801.726 404.057 801.893 418.052 C 802.753 490.169 800.491 562.876 802.165 634.93 C 847.611 636.294 901.91 634.955 948.001 634.963 L 1209.82 634.734 C 1210.43 642.524 1210.15 646.168 1209.53 654.015 C 1165.48 652.574 1117.1 653.521 1072.84 653.538 L 803.203 653.278 C 802.072 684.218 802.829 718.509 802.836 749.741 C 802.707 796.876 802.814 844.011 803.157 891.145 C 823.579 890.63 844.942 890.12 865.325 890.408 C 1020.15 892.594 1175.44 889.052 1330.21 890.904 C 1336.83 882.713 1352.37 847.951 1358.14 835.817 L 1417.17 713.856 C 1427.27 692.902 1437.26 669.711 1449.1 649.73 C 1450.95 646.598 1452.8 645.46 1456.31 644.774 C 1469.53 647.011 1482.45 684.821 1488.66 697.461 C 1518.08 757.56 1547 817.902 1575.41 878.481 L 1666.69 1069.25 C 1680.67 1098.5 1694.3 1127.94 1708.79 1156.92 C 1715.21 1169.77 1709.43 1175.13 1701.27 1184.44 C 1694.16 1176.67 1681.51 1167.32 1672.9 1161.37 C 1628.33 1130.76 1576.19 1113.04 1522.2 1110.16 C 1358.91 1100.26 1218.27 1229.72 1211.15 1391.99 C 1204.02 1554.36 1332.08 1693.95 1494.43 1700.4 C 1601.79 1704.68 1701.55 1649.7 1758.04 1559 C 1762.8 1551.32 1767.19 1543.42 1771.19 1535.32 C 1777.2 1523.15 1785.65 1485.99 1801.37 1511.37 C 1803.02 1522.45 1772.65 1573.41 1765.15 1584.11 C 1717.1 1653.1 1643.57 1700.13 1560.78 1714.82 C 1477.89 1729.55 1392.55 1710.37 1323.94 1661.58 C 1255.22 1612.62 1208.92 1538.23 1195.35 1454.96 C 1182.35 1373.1 1202.07 1289.4 1250.24 1221.95 C 1301.67 1151.14 1374.9 1106.73 1461.49 1093.65 C 1533.53 1082.77 1619.54 1099.62 1678.54 1142.91 C 1670.47 1121.37 1657.92 1096.43 1647.91 1075.39 L 1598.02 971.258 C 1591.08 956.827 1573.97 923.363 1569.88 910.136 C 1561.37 909.943 1552.56 909.995 1544.03 910.061 C 1477.57 910.57 1410.94 909.108 1344.52 910.124 C 1335.95 924.263 1320.78 958.046 1312.91 974.381 L 1258.57 1086.68 C 1251.54 1101.52 1232.02 1147.32 1221.14 1155.61 C 1207.16 1160.49 1174.4 1158.76 1158 1158.67 L 1070.02 1158.52 C 996.505 1158.22 922.99 1158.4 849.479 1159.06 C 840.189 1159.13 802.185 1157.69 796.102 1160.3 C 808.22 1175.04 815.168 1185.7 819.569 1204.2 C 812.886 1206.01 808.308 1208.21 801.996 1211.01 C 797.279 1194.52 788.364 1179.53 776.121 1167.51 C 735.973 1127.74 659.51 1108.66 604.007 1109.58 C 554.6 1110.41 489.219 1117.37 453.342 1154.34 C 434.641 1173.94 424.489 1200.17 425.115 1227.25 C 426.509 1284.99 509.681 1336.81 558.352 1349.14 C 668.697 1377.08 844.826 1368.91 849.076 1525.55 C 850.431 1575.46 836.075 1606.24 801.474 1642.66 C 753.761 1692.89 689.069 1714.92 620.628 1714.93 C 468.745 1714.9 334.265 1646.21 334.915 1476.07 C 342.441 1475.45 346.454 1475.27 353.972 1475.56 C 354.417 1489.72 354.531 1503.85 356.735 1517.85 C 364.573 1568.72 392.453 1614.34 434.152 1644.52 C 497.698 1690.11 595.361 1703.8 671.155 1691.09 C 725.777 1681.85 774.523 1651.36 806.742 1606.3 C 827.524 1576.65 833.543 1541.63 827.902 1506.3 C 806.926 1384.02 650.039 1394.14 558.312 1369.14 C 502.275 1353.89 415.121 1304.69 406.939 1240.9 C 395.364 1150.67 465.826 1104.4 545.114 1094.8 C 637.059 1083.67 709.598 1093.4 783.958 1148.05 L 783.85 991.566 C 783.862 964.817 784.349 936.596 783.09 909.964 C 782.591 899.41 756.192 872.448 747.865 862.805 L 696.595 803.246 L 531.778 612.611 L 412.335 474.341 L 376.04 432.05 C 368.365 423.112 360.683 413.234 351.915 405.472 C 353.611 439.251 353.012 474.894 353.021 508.868 L 353.031 664.577 L 353.03 825.347 C 353.028 854.198 353.839 887.417 352.558 915.798 C 345.534 916.789 342.187 916.776 335.057 916.723 C 333.361 841.119 334.672 761.006 334.675 685.124 L 334.752 375.996 z"/>
<path transform="translate(0,0)" fill="rgb(131,21,33)" d="M 796.102 1160.3 L 794.411 1157.46 L 795.142 1156.08 C 799.131 1155.29 818.549 1155.97 823.989 1155.97 L 901.481 1155.97 C 1007.13 1155.99 1115.83 1157.39 1221.14 1155.61 C 1207.16 1160.49 1174.4 1158.76 1158 1158.67 L 1070.02 1158.52 C 996.505 1158.22 922.99 1158.4 849.479 1159.06 C 840.189 1159.13 802.185 1157.69 796.102 1160.3 z"/>
<path transform="translate(0,0)" fill="rgb(128,1,24)" d="M 802.103 909.916 L 1321.68 909.993 C 1316.89 923.275 1304.51 946.983 1297.8 960.841 L 1248.17 1063.42 C 1235.68 1087.28 1225 1113.33 1212.06 1137.07 L 802.03 1136.99 C 801.644 1063.81 800.171 982.655 802.103 909.916 z"/>
<path transform="translate(0,0)" fill="rgb(254,252,253)" d="M 854.601 951.037 C 869.229 952.227 886.729 951.788 901.658 951.775 L 974.613 951.721 L 1160.74 951.753 C 1193.84 951.748 1227.66 951.121 1260.65 951.883 C 1260.9 959.748 1260.62 963.912 1259.88 971.788 L 1125.5 971.861 L 964.325 971.865 C 938.963 971.883 898.765 973.145 874.976 971.088 C 873.422 988.087 873.929 1007.72 873.951 1024.99 L 874.095 1105.65 C 867.55 1105.78 861.564 1106.29 855.048 1106.83 C 853.235 1093.69 853.699 1054.65 853.922 1039.77 C 854.336 1012.21 852.824 978.008 854.601 951.037 z"/>
<path transform="translate(0,0)" fill="rgb(128,1,24)" d="M 1458.77 676.87 C 1457.59 675.496 1485.19 735.07 1486.46 737.748 L 1534.06 837.469 C 1540.47 850.811 1554.89 878.591 1559.05 891.326 C 1526 889.658 1489.1 890.385 1455.72 890.431 C 1421.71 890.198 1387.71 890.445 1353.71 891.171 C 1357.56 881.007 1365.75 865.191 1370.68 854.998 L 1400.49 793.249 L 1435.23 721.277 C 1440.34 710.651 1451.75 683.849 1458.77 676.87 z"/>
<path transform="translate(0,0)" fill="rgb(254,252,253)" d="M 1460.13 738.117 C 1468.2 741.13 1470.43 756.285 1472.07 764.009 C 1463.55 787.841 1431.38 846.747 1419.76 872.79 C 1418.81 874.919 1414.76 874.637 1412.25 874.802 L 1398.05 875.059 C 1400.77 863.479 1410.21 846.373 1415.27 835.043 C 1429.43 803.356 1448.22 770.538 1460.13 738.117 z"/>
<path transform="translate(0,0)" fill="rgb(254,252,253)" d="M 1373.57 920.588 C 1380.02 920.245 1390.53 918.026 1393.78 924.419 C 1393.4 928.017 1383.71 944.649 1380.86 952.128 C 1441.56 950.765 1505.7 953.57 1565.62 951.261 C 1571.26 958.671 1572.54 963.268 1574.94 971.923 L 1371.53 972.897 C 1361.16 987.047 1342.11 1031.16 1333.23 1048.47 C 1314.68 1084.65 1297.38 1122.46 1278.81 1158.7 C 1271.39 1173.19 1261.67 1196.54 1252.63 1208.83 L 1199.22 1208.96 C 1193.14 1217.65 1176.73 1256.25 1171.49 1267.75 L 1112.34 1397.71 L 1050.27 1533.95 C 1043.59 1548.67 1025.02 1586.48 1022.16 1599.94 C 1070.92 1606.27 1115.12 1595.31 1139.61 1548.92 C 1142.8 1542.89 1145.55 1536.77 1148.32 1530.54 C 1151.21 1532.65 1153.83 1534.1 1156.92 1535.91 C 1159.67 1537.56 1162.44 1539.16 1165.1 1540.94 C 1162.83 1545.92 1159.55 1553.63 1156.82 1558.12 C 1148.82 1577.3 1126.93 1597.83 1108.61 1607.18 C 1080.62 1621.48 1044.49 1625.58 1014.46 1616.17 C 1006.36 1627.57 1002.76 1639.47 996.776 1651.56 C 984.163 1677.06 971.981 1710.71 958.37 1735 C 954.483 1733.36 945.411 1730.4 943.123 1727.14 C 940.167 1722.94 975.914 1648.37 979.812 1640.08 C 983.59 1632.04 989.846 1622.48 991.522 1613.9 C 992.035 1611.27 991.564 1610.27 989.674 1608.32 C 986.293 1604.82 980.372 1602.68 976.281 1599.96 C 962.472 1590.83 950.677 1578.98 941.622 1565.12 C 926.667 1541.78 922.474 1511.8 928.977 1485.16 C 939.28 1442.95 963.103 1418.17 998.013 1395.69 C 990.877 1378.49 983.705 1370.34 980.903 1350.82 C 973.315 1297.95 1018.82 1248.36 1072.76 1265.69 C 1084.27 1269.38 1092.46 1275.95 1101.79 1283.3 C 1104.74 1268.92 1111.54 1247.75 1117.51 1234.76 C 1124.8 1237.44 1127.58 1238.63 1134.35 1242.39 C 1128.96 1260.53 1122.5 1282.63 1115.55 1300.13 C 1112.82 1307.03 1107.27 1307.87 1100.5 1310.03 C 1092.5 1303.74 1086.42 1295.65 1077.53 1289.64 C 1052.78 1272.23 1021.95 1284.42 1007.68 1308.51 C 992.564 1334.02 1000.06 1361.26 1015.84 1384.02 C 1028.98 1402.97 1017.56 1407.87 1001.94 1416.93 C 965.939 1437.81 939.295 1483.54 946.457 1525.73 C 952.042 1557.61 976.238 1575.78 1000.82 1592.9 C 1006.86 1583.23 1017.89 1556.21 1023.35 1544.16 L 1067.94 1446.25 L 1142.23 1282.68 C 1148.63 1268.66 1172.19 1220.15 1175.05 1207.96 C 1133.77 1209.56 1089.98 1208.86 1048.5 1208.87 L 843.869 1209.02 C 843.323 1201.04 843.212 1196.99 843.677 1189.03 C 891.635 1187.69 942.395 1188.47 990.515 1188.47 L 1238.5 1188.9 C 1244.34 1180.61 1260.99 1145.11 1266.43 1134.23 L 1337.97 990.229 C 1345.95 974.11 1364.33 934.197 1373.57 920.588 z"/>
<path transform="translate(0,0)" fill="rgb(253,236,239)" d="M 1156.92 1535.91 C 1159.67 1537.56 1162.44 1539.16 1165.1 1540.94 C 1162.83 1545.92 1159.55 1553.63 1156.82 1558.12 C 1157.4 1551.64 1157.02 1542.63 1156.92 1535.91 z"/>
<path transform="translate(0,0)" fill="rgb(254,252,253)" d="M 1485.34 1161.39 C 1549.23 1152.45 1636.9 1184.47 1680.13 1231.98 C 1675.47 1238.73 1672.07 1241.9 1666.24 1247.48 C 1642.45 1217.83 1592.01 1194.12 1555.49 1186.03 C 1495.05 1172.32 1431.63 1183.71 1379.74 1217.59 C 1328.37 1250.77 1292.3 1303.01 1279.48 1362.81 C 1266.48 1423.05 1278.36 1486 1312.43 1537.36 C 1345.88 1588.73 1398.44 1624.65 1458.45 1637.16 C 1518.37 1649.57 1580.78 1637.7 1631.96 1604.15 C 1664.19 1581.73 1689.3 1555.67 1707.8 1520.7 C 1713.89 1509.19 1718.46 1496.69 1725.18 1485.63 C 1728.52 1486.77 1732.91 1487.92 1735.77 1490.05 C 1737.89 1491.63 1739.33 1493.86 1739.64 1496.53 C 1741.13 1509.57 1709.3 1557.57 1700.97 1567.91 C 1660.69 1617.93 1601.23 1653.16 1536.88 1660.04 C 1466.74 1667.54 1400.25 1648.99 1345.36 1604.39 C 1293.86 1561.95 1261.5 1500.65 1255.49 1434.19 C 1249.18 1368.9 1268.94 1303.76 1310.46 1252.98 C 1355.88 1198.16 1414.75 1168.1 1485.34 1161.39 z"/>
<path transform="translate(0,0)" fill="rgb(254,252,253)" d="M 408.426 1479.57 C 412.103 1479.21 414.599 1478.66 418.146 1479.68 C 419.632 1483.78 419.574 1493.74 420.31 1499 C 422.611 1516.06 427.597 1532.66 435.082 1548.16 C 452.78 1584.99 486.72 1617.41 528.009 1629.92 C 599.198 1651.48 728.475 1652.5 758.894 1566.7 C 768.089 1540.76 765.261 1516.64 752.881 1492.44 C 758.96 1487.64 762.253 1485.11 768.875 1481.22 C 775.12 1489.78 776.853 1495 780.273 1504.91 C 789.529 1542.45 781.369 1583.86 754.922 1612.49 C 723.981 1645.98 678.56 1658.58 634.481 1660.96 C 572.086 1664.34 506.108 1655.87 458.225 1612.11 C 419.939 1577.34 401.416 1531.09 398.884 1480.01 L 408.426 1479.57 z"/>
<path transform="translate(0,0)" fill="rgb(254,252,253)" d="M 1510.57 650.881 C 1517.54 650.958 1524.52 650.959 1531.49 650.884 C 1542.01 668.526 1558.18 705.706 1567.29 725.228 L 1632.27 864.77 L 1721.58 1055.74 C 1735.64 1085.75 1755.79 1125.53 1767.77 1155.06 C 1768.59 1157.64 1769.5 1159.29 1768.69 1161.8 C 1764.02 1165.86 1751.13 1163.83 1747.28 1160.01 L 1746.51 1156.65 C 1743.75 1148.67 1733.86 1128.97 1729.98 1120.71 L 1693.39 1042.96 L 1570.3 779.521 L 1532.01 697.755 C 1524.9 682.626 1516.35 666.297 1510.57 650.881 z"/>
<path transform="translate(0,0)" fill="rgb(253,236,239)" d="M 1767.77 1155.06 C 1768.59 1157.64 1769.5 1159.29 1768.69 1161.8 C 1764.02 1165.86 1751.13 1163.83 1747.28 1160.01 L 1746.51 1156.65 C 1752.57 1156.99 1762.88 1158.22 1767.77 1155.06 z"/>
<path transform="translate(0,0)" fill="rgb(254,252,253)" d="M 415.866 375.023 C 424.119 375.222 432.562 375.633 440.831 375.94 C 452.43 387.339 474.072 414.79 485.416 428.438 L 567.113 526.569 L 704.797 691.765 C 723.609 714.359 742.553 737.048 761.666 759.407 C 764.159 762.323 764.877 763.779 765.708 767.416 C 757.955 768.168 750.245 767.872 742.459 767.739 C 716.105 735.16 689.336 702.918 662.16 671.021 L 503.058 481.077 L 451.071 419.235 C 441.555 408.028 422.798 387.052 415.866 375.023 z"/>
<path transform="translate(0,0)" fill="rgb(254,252,253)" d="M 854.191 696.835 C 941.751 698.894 1035.07 697.379 1122.92 697.346 C 1141.83 697.381 1160.75 697.318 1179.67 697.156 C 1185.48 697.106 1204.98 696.181 1208.81 698.465 C 1212.38 704.361 1210.36 710.319 1209.21 717.313 C 1159.58 716.06 1106.4 716.929 1056.5 716.942 C 999.8 716.962 931.232 718.71 875.201 716.43 C 873.204 729.174 873.905 758.501 873.913 772.757 L 873.935 869.868 L 854.795 870.212 C 853.032 855.899 853.918 824.96 853.922 809.366 L 854.191 696.835 z"/>
<path transform="translate(0,0)" fill="rgb(254,252,253)" d="M 396.888 510.936 C 403.08 514.705 414.09 527.021 414.617 534.362 C 415.651 548.775 415.149 563.765 415.112 578.258 L 414.989 665.516 L 415.042 824.226 C 415.054 852.766 415.952 886.536 414.54 914.617 L 397.514 914.069 C 395.887 888.296 397.035 852.398 397.039 825.826 L 397.078 659.598 L 397.01 558.077 C 396.978 547.796 395.934 519.355 396.888 510.936 z"/>
<path transform="translate(0,0)" fill="rgb(254,252,253)" d="M 586.639 1153.44 C 648.429 1148.68 759.535 1178.28 778.218 1245.76 C 771.152 1249.36 768.162 1249.76 761.061 1254.69 C 760.39 1252.95 759.661 1251.23 758.876 1249.54 C 743.435 1215.86 713.53 1198.97 680.27 1186.6 C 678.822 1186.11 677.369 1185.64 675.91 1185.18 C 623.746 1168.83 513.32 1158.87 492.666 1227.11 C 484.37 1225.14 481.192 1223.52 474.205 1219.28 C 488.973 1169.92 540.886 1156.1 586.639 1153.44 z"/>
<path transform="translate(0,0)" fill="rgb(254,252,253)" d="M 869.646 376.435 C 872.765 376.195 872.737 375.924 875.371 377.463 C 877.694 384.888 877.573 607.064 875.297 615.476 C 872.56 617.146 869.195 616.159 865.754 615.746 L 857.055 614.911 C 857.466 535.766 857.428 456.619 856.942 377.474 L 869.646 376.435 z"/>
</svg>