<svg version="1.1" xmlns="http://www.w3.org/2000/svg" style="display: block;" viewBox="0 0 2048 1267" width="1075" height="665" preserveAspectRatio="xMidYMid meet">
<path transform="translate(0,0)" fill="rgb(240,239,239)" d="M 481.272 138.453 C 564.672 133.469 657.363 182.221 702.159 252.352 C 717.768 250.451 800.295 238.956 811.635 240.523 C 814.074 240.85 816.248 242.229 817.581 244.298 C 818.924 246.422 819.428 249.294 818.705 251.73 C 816.867 257.921 740.027 293.439 727.845 299.836 C 754.286 367.594 746.379 422.356 745.261 493.087 L 741.283 712.325 L 739.359 817.653 C 738.814 856.852 740.191 895.387 731.279 933.76 C 720.973 978.616 698.709 1019.84 666.853 1053.06 C 625.93 1095.35 562.735 1127.24 503.445 1128.17 C 488.841 1129.57 474.957 1129.02 460.397 1127.34 C 386.58 1118.81 327.924 1085.09 281.794 1027.6 C 260.995 1032.93 233.383 1033.66 211.779 1037.96 C 196.329 1041.04 179.061 1042.28 163.436 1044.64 C 160.636 1044.91 158.93 1044.65 156.556 1043.37 C 150.588 1040.57 153.632 1032.63 156.031 1028.05 C 175.141 991.538 192.925 954.37 210.792 917.224 C 216.625 905.097 225.864 888.451 228.531 875.463 C 229.515 870.674 228.804 853.9 228.832 848.073 L 229.234 785.828 L 232.634 527.383 L 233.526 433.144 C 234.023 398.869 233.207 369.587 241.146 335.827 C 251.322 292.124 272.655 251.807 303.061 218.808 C 350.717 167.444 411.581 140.957 481.272 138.453 z M 351.916 632.257 C 376.685 586.894 420.611 496.92 470.806 482.694 C 496.345 475.456 527.719 476.683 551.595 489.767 C 555.379 491.884 559.094 494.121 562.735 496.476 C 559.816 491.761 556.665 486.641 553.229 482.315 C 522.736 443.912 479.182 431.221 476.685 375.605 C 476.042 362.48 477.232 349.331 480.221 336.535 C 495.672 271.182 558.16 246.601 620.452 251.552 C 630.774 252.372 641.677 256.821 652.101 257.59 C 659.394 258.13 674.286 255.255 682.17 254.688 C 628.313 186.5 561.577 153.816 474.453 156.5 C 408.877 161.508 353.67 187.377 310.463 237.733 C 284.161 268.456 266.002 305.297 257.653 344.87 C 250.007 380.524 251.35 454.781 251.022 494.583 L 247.969 742.291 C 247.455 771.079 248.633 814.849 246.537 842.43 C 282.29 771.842 314.568 702.826 351.916 632.257 z M 492.777 1111.15 C 532.683 1108.31 549.229 1104.65 586.914 1089.19 C 585.49 1082.66 584.277 1076.09 583.277 1069.48 L 579.007 1045.89 C 574.593 1054.04 560.764 1085.27 551.172 1063.17 C 549.182 1058.59 568.695 1027.87 571.515 1022.5 L 521.466 987.859 C 513.44 982.318 501.036 973.2 492.86 968.516 L 492.852 1062.52 C 492.849 1077.79 493.343 1096.08 492.777 1111.15 z M 255.171 882.943 C 252.35 882.968 248.749 882.566 246.633 884.132 C 226.85 923.781 208.695 964.394 188.653 1003.94 C 185.198 1010.76 181.501 1017.86 178.307 1024.79 C 210.93 1019.58 250.154 1015.79 281.701 1009.83 C 299.823 987.085 322.697 965.02 343.162 944.302 C 394.709 892.192 448.352 843.088 496.847 787.976 C 549.627 727.995 597.38 658.648 589.326 574.744 C 585.503 534.912 552.194 498.873 511.262 496.279 C 507.198 496.022 502.536 496.301 498.421 496.435 C 471.253 498.463 455.859 505.842 438.396 527.629 C 398.521 577.376 367.471 641.234 338.065 697.906 C 325.062 722.967 306.618 758.435 295.243 783.949 C 322.303 779.412 349.527 770.124 372.779 754.652 C 381.107 749.111 393.387 730.795 402.688 737.931 C 410.799 744.155 402.817 752.557 397.86 757.495 C 371.593 781.377 321.733 802.481 286.374 802.208 C 276.287 822.782 265.936 844.969 255.565 865.256 C 286.241 860.704 325.187 851.549 347.885 828.416 C 363.729 812.268 375.436 830.428 360.067 842.085 C 332.834 866.904 291.14 879.715 255.171 882.943 z M 475.129 955.99 C 466.571 950.174 425.362 924.193 422.734 916.462 C 420.467 909.794 449.695 869.022 449.675 863.996 C 419.933 896.06 380.587 932.403 349 964.14 C 337.722 975.354 326.702 986.823 315.947 998.539 C 311.239 1003.61 302.004 1014.22 297.172 1018.52 C 323.617 1048.72 341.899 1065.68 378.29 1084.81 C 411.392 1101.06 438.201 1108.14 474.99 1110.62 C 475.004 1060.76 473.94 1005.45 475.129 955.99 z M 457.905 922.217 L 475.058 934.15 C 475.049 929.06 475.844 852.23 476.62 854.734 C 465.72 873.518 454.413 893.787 442.955 912.108 L 457.905 922.217 z M 755.552 264.481 C 732.44 266.658 709.361 269.18 686.324 272.045 C 675.498 273.29 663.148 274.948 652.328 275.611 C 643.135 276.175 632.163 270.732 621.4 269.608 C 585.081 265.815 540.111 274.834 515.578 303.931 C 497.328 325.577 492.97 354.251 495.193 381.695 C 498.297 420.011 545.466 441.093 567.075 470.42 C 581.877 490.51 584.967 502.1 591.787 526.018 C 593.769 532.97 601.158 543.248 603.346 551.508 C 612.758 587.042 607.478 637.359 594.067 670.946 L 592.945 673.382 L 593.776 673.634 C 620.651 638.802 664.016 571.875 656.043 527.776 C 652.21 506.572 648.668 489.705 630.352 475.362 C 599.011 450.317 557.184 422.816 548.981 380.909 C 547.938 375.58 549.687 363.397 554.129 360.301 C 572.632 347.98 594.945 353.952 616.327 343.437 C 636.204 333.663 652.641 321.773 670.48 308.424 C 677.916 302.861 757.416 266.532 757.746 263.863 L 755.552 264.481 z M 492.798 946.486 C 501.262 952.239 512.984 959.68 520.904 965.695 C 538.071 977.452 577.39 1002.94 591.545 1015.08 C 595.346 1029.28 601.186 1064.88 603.392 1080.33 C 662.802 1041.97 699.081 994.989 714.67 924.705 C 722.461 889.576 720.676 846.528 721.417 810.111 L 724.529 637.604 L 727.372 485.915 C 728.195 451.048 729.094 413.867 728.147 379.106 C 727.716 363.276 719.249 320.838 711.507 308.241 L 710.452 307.99 C 705.096 310.613 685.618 319.873 682.015 322.52 C 657.852 340.272 640.379 353.753 611.613 364.504 C 599.888 368.886 571.325 369.191 567.204 373.838 C 565.812 381.232 572.996 397.968 577.415 403.006 C 589.972 417.318 612.767 442.423 629.374 452.042 C 662.86 471.439 682.504 520.098 673.686 558.689 C 653.769 638.725 591.995 706.525 540.196 768.369 C 531.958 778.206 504.372 802.824 501.769 813.112 C 490.822 856.379 493.821 902.66 492.798 946.486 z"/>
<path transform="translate(0,0)" fill="rgb(240,239,239)" d="M 1657.78 539.387 C 1710.24 534.005 1757.02 572.421 1761.95 624.923 C 1766.87 677.425 1728.05 723.873 1675.51 728.342 C 1623.61 732.756 1577.85 694.511 1572.99 642.651 C 1568.12 590.791 1605.97 544.703 1657.78 539.387 z M 1669.5 703.118 C 1707.91 701.93 1738.04 669.731 1736.66 631.324 C 1735.29 592.916 1702.95 562.947 1664.55 564.501 C 1626.41 566.046 1596.68 598.123 1598.05 636.272 C 1599.41 674.421 1631.34 704.297 1669.5 703.118 z"/>
<path transform="translate(0,0)" fill="rgb(240,239,239)" d="M 1681.14 766.293 C 1733.43 761.624 1779.58 800.313 1784.11 852.622 C 1788.64 904.932 1749.82 950.975 1697.5 955.362 C 1645.38 959.733 1599.55 921.1 1595.04 868.989 C 1590.53 816.878 1629.04 770.944 1681.14 766.293 z M 1693.49 930.025 C 1731.88 927.785 1761.11 894.749 1758.67 856.378 C 1756.22 818.008 1723.03 788.947 1684.68 791.595 C 1646.61 794.222 1617.81 827.111 1620.24 865.194 C 1622.66 903.278 1655.4 932.248 1693.49 930.025 z"/>
<path transform="translate(0,0)" fill="rgb(240,239,239)" d="M 1477.05 766.29 C 1529.25 761.752 1575.24 800.383 1579.79 852.58 C 1584.34 904.777 1545.71 950.779 1493.52 955.334 C 1441.31 959.89 1395.29 921.255 1390.75 869.046 C 1386.2 816.836 1424.84 770.828 1477.05 766.29 z M 1489.49 930.03 C 1527.8 927.598 1556.85 894.514 1554.31 856.212 C 1551.77 817.91 1518.6 788.958 1480.3 791.613 C 1442.17 794.257 1413.36 827.26 1415.89 865.404 C 1418.43 903.548 1451.34 932.452 1489.49 930.03 z"/>
<path transform="translate(0,0)" fill="rgb(240,239,239)" d="M 1292.08 543.361 C 1306.97 545.743 1341.51 543.843 1357.88 543.77 C 1391.41 543.622 1423.46 556.407 1423 594.611 C 1422.88 607.835 1417.35 620.433 1407.71 629.476 C 1394.28 642.153 1379.45 645.346 1361.76 644.974 C 1377.5 657.448 1406.17 680.485 1420.2 693.804 C 1420.51 700.872 1424.16 721.969 1416.42 723.317 C 1412.72 722.301 1410.25 719.759 1407.3 717.26 C 1397.19 708.274 1329.14 646.284 1322.71 644.873 C 1320.71 644.434 1320.47 644.742 1318.91 645.85 C 1317.76 651.652 1318.54 715.318 1318.58 723.651 C 1309.98 723.536 1300.77 723.788 1292.11 723.866 C 1291.83 714.579 1291.89 705.061 1291.95 695.764 C 1292.26 645.006 1291.36 594.101 1292.08 543.361 z M 1318.39 620.015 C 1337.78 620.195 1371.53 624.354 1387.77 613.163 C 1392.11 608.512 1395.71 603.465 1396.28 597.033 C 1399.55 559.935 1339.99 568.971 1318.28 569.239 C 1318.47 585.572 1318.86 603.754 1318.39 620.015 z"/>
<path transform="translate(0,0)" fill="rgb(240,239,239)" d="M 1005.65 539.382 C 1041 536.93 1062.99 548.855 1086.74 573.641 C 1080.51 578.861 1073.88 586.011 1068.13 591.925 C 1043.88 563.421 1010 554.634 976.153 574.594 C 944.413 593.313 939.623 646.512 959.154 675.997 C 968.305 689.7 982.608 699.12 998.812 702.115 C 1012.18 704.66 1024.33 703.377 1037.11 699.123 C 1062.59 690.645 1073.36 673.115 1077.87 647.947 C 1042.84 647.522 1007.05 647.89 971.955 647.876 L 971.286 647.752 C 968.538 644.846 969.79 627.081 969.89 622.021 C 998.732 622.833 1027.76 622.027 1056.62 622.253 C 1064.81 622.317 1072.54 622.005 1080.71 623.125 C 1086.11 627.298 1098.06 640.124 1104.33 645.974 C 1102.26 663.519 1098.05 676.86 1087.16 691.333 C 1072.12 711.166 1049.87 724.275 1025.23 727.819 C 1000.94 731.194 976.308 724.76 956.77 709.938 C 936.589 694.369 924.675 671.978 921.388 646.991 C 917.753 620.842 924.73 594.324 940.764 573.349 C 957.496 551.803 979.416 542.645 1005.65 539.382 z"/>
<path transform="translate(0,0)" fill="rgb(240,239,239)" d="M 1791.16 543.289 C 1799.51 544.427 1817.21 543.978 1826.26 543.981 C 1842.24 589.151 1855.65 636.957 1871.85 681.809 C 1870.39 667.967 1871.02 644.678 1871.01 629.984 C 1870.9 601.188 1870.95 572.392 1871.13 543.597 C 1877.7 544.151 1888.92 543.975 1895.37 543.289 C 1895.35 602.547 1894.48 664.544 1895.69 723.575 C 1891.64 724.158 1865.87 723.811 1860.01 723.821 C 1845.3 678.506 1828.62 631.133 1814.97 585.788 C 1816.11 631.603 1814.56 677.978 1815.7 723.827 C 1807.54 723.756 1799.38 723.762 1791.22 723.846 C 1790.87 714.385 1790.95 704.617 1791.02 695.141 C 1791.35 644.573 1790.4 593.837 1791.16 543.289 z"/>
<path transform="translate(0,0)" fill="rgb(240,239,239)" d="M 1174.2 543.841 L 1212 543.812 L 1258.79 723.57 L 1232.35 723.954 C 1229.04 711.618 1225.9 699.235 1222.94 686.809 L 1214.25 686.944 L 1163.23 686.873 C 1160.31 698.961 1157.33 711.034 1154.28 723.091 C 1146.04 723.889 1135.96 723.744 1127.54 723.822 L 1174.2 543.841 z M 1170.06 662.007 L 1193.2 662.024 L 1216.13 661.991 L 1201.11 600.403 C 1199.7 594.683 1195.14 574.956 1193 570.517 C 1185.71 597.7 1176 634.501 1170.06 662.007 z"/>
<path transform="translate(0,0)" fill="rgb(240,239,239)" d="M 989.719 767.281 C 1028.02 763.361 1053.5 779.724 1059.46 818.297 L 1032.16 818.562 C 1029.92 811.236 1028.76 806.573 1023.41 800.999 C 1017.51 794.823 1009.35 791.305 1000.81 791.248 C 985.594 791.006 970.879 799.873 971.319 816.391 C 971.906 843.524 1007.61 843.688 1026.91 850.66 C 1048.01 857.752 1064.73 874.417 1063.53 898.129 C 1061.14 945.247 1025.8 953.883 987.445 953.251 C 953.291 952.116 932.747 931.492 925.904 899.334 C 931.903 896.015 945.301 891.213 952.204 888.54 C 952.518 891.287 952.868 894.313 953.384 897.016 C 955.174 906.774 960.766 915.422 968.93 921.058 C 993.806 938.05 1045.75 925.539 1036.44 893.57 C 1027.04 861.283 954.436 878.656 946.591 829.316 C 941.028 794.328 956.477 774.384 989.719 767.281 z"/>
<path transform="translate(0,0)" fill="rgb(240,239,239)" d="M 1166.69 316.997 C 1175.81 317.101 1184.93 317.058 1194.04 316.867 C 1193.46 358.516 1194.31 400.56 1193.9 442.215 C 1193.73 459.393 1194.74 480.397 1193.8 497.04 L 1166.94 497.002 C 1165.98 472.44 1166.53 442.816 1166.73 418.155 L 1111.42 418.216 C 1112.02 425.002 1111.69 438.221 1111.7 445.465 L 1111.74 496.988 L 1084.99 497.011 C 1083.47 440.027 1084.46 374.315 1084.75 316.959 C 1093.43 317.209 1103 316.968 1111.75 316.923 C 1111.44 337.228 1113.07 374.225 1111.19 392.85 L 1166.94 392.89 C 1165.83 370.774 1166.35 339.412 1166.69 316.997 z"/>
<path transform="translate(0,0)" fill="rgb(240,239,239)" d="M 1265.58 770.401 C 1273.47 771.383 1283.73 770.939 1291.79 770.77 L 1291.91 846.834 L 1347.59 846.873 C 1345.81 831.488 1347.05 787.634 1347.08 770.407 C 1355.93 771.265 1364.82 770.945 1373.72 770.818 C 1374.18 807.309 1373.8 844.562 1373.8 881.111 C 1373.81 902.781 1374.64 929.527 1373.66 950.799 L 1347.26 950.851 C 1346.97 924.587 1346.93 898.321 1347.15 872.056 L 1291.81 872.194 L 1291.97 950.81 L 1265.33 950.857 C 1263.92 914.305 1265.84 873.809 1265.06 836.808 C 1264.82 825.227 1264.25 779.793 1265.58 770.401 z"/>
<path transform="translate(0,0)" fill="rgb(240,239,239)" d="M 1219.57 316.769 C 1230.66 317.575 1246.84 317.153 1258.17 317.155 C 1279.4 317.269 1300.63 317.165 1321.86 316.841 C 1321.5 324.613 1321.75 334.197 1321.76 342.113 L 1245.99 342.06 L 1246.13 392.942 L 1322 392.807 C 1321.52 400.753 1321.75 410.225 1321.76 418.317 C 1301.11 418.09 1266.4 417.19 1246.66 418.427 L 1246.05 420.75 L 1246.09 471.305 C 1270.37 471.595 1297.8 471.935 1321.89 470.991 C 1321.49 479.643 1321.76 488.374 1321.89 497.04 C 1287.89 496.83 1253.88 496.814 1219.88 496.991 C 1218.86 476.02 1219.48 451.061 1219.48 429.856 L 1219.57 316.769 z"/>
<path transform="translate(0,0)" fill="rgb(240,239,239)" d="M 1164.39 766.411 C 1166.98 766.145 1169.58 766.043 1172.18 766.107 C 1203.99 766.748 1222.54 778.976 1243.4 800.901 C 1238.03 805.276 1230.41 813.289 1225.28 818.417 C 1202.37 790.58 1171.6 782.602 1138.27 799.441 C 1104.94 816.279 1097.38 867.413 1114.91 898.38 C 1123.28 913.205 1137.32 923.983 1153.8 928.229 C 1171.24 932.834 1190.33 931.295 1206.05 922.111 C 1215.82 915.415 1218.95 912.245 1226.21 902.988 L 1244.34 920.911 C 1188.1 985.329 1087.21 955.157 1079.2 870.501 C 1076.54 844.309 1084.43 818.138 1101.11 797.773 C 1117.71 777.855 1139.16 768.792 1164.39 766.411 z"/>
<path transform="translate(0,0)" fill="rgb(240,239,239)" d="M 1455.79 543.03 C 1462.69 544.889 1539.12 544.487 1548.95 543.234 C 1549.34 558.525 1551.21 565.648 1543.62 579.395 C 1521.8 618.893 1501.21 659.398 1478.84 698.569 C 1500.71 698.544 1525.31 699.233 1546.9 698.092 L 1547.01 722.713 C 1544.54 724.263 1460.97 723.714 1450.21 723.872 C 1450.04 718.334 1449.2 703.411 1450.99 698.996 C 1456.43 685.548 1465.68 669.99 1472.72 657.058 L 1520.4 569.31 C 1499.19 568.844 1477.05 569.15 1455.77 569.144 C 1455.32 559.506 1455.37 552.679 1455.79 543.03 z"/>
<path transform="translate(0,0)" fill="rgb(240,239,239)" d="M 927.957 316.543 C 934.268 317.63 961.996 317.176 970.286 317.175 C 999.829 317.286 1029.37 317.177 1058.91 316.845 C 1058.64 324.858 1058.84 333.981 1058.84 342.083 L 1006.84 342.046 C 1007.49 380.274 1006.86 420.367 1006.87 458.75 C 1006.21 474.902 1007.95 467.413 1014.19 472.313 C 1015.68 478.056 1015.07 490.473 1015.05 497.03 C 1000.72 496.925 986.401 496.905 972.079 496.97 C 971.834 489.687 971.134 479.505 972.235 472.584 C 975.624 469.422 976.035 473.106 979.765 470.431 C 980.435 456.573 979.956 438.97 979.951 424.884 L 979.962 342.007 L 927.933 342.082 C 927.709 333.8 927.91 324.879 927.957 316.543 z"/>
<path transform="translate(0,0)" fill="rgb(240,239,239)" d="M 1793.38 770.724 C 1802.27 771.095 1811.32 770.869 1820.23 770.756 L 1820.14 925.148 C 1845.19 925.109 1869.91 925.457 1894.99 924.941 C 1894.94 933.911 1894.86 941.901 1895.51 950.84 L 1793.74 950.857 C 1792.65 928.026 1793.29 901.586 1793.28 878.538 L 1793.38 770.724 z"/>
<path transform="translate(0,0)" fill="rgb(240,239,239)" d="M 1688.18 490.73 C 1692.2 493.221 1702.15 503.719 1706.02 507.615 C 1698.78 514.006 1692.45 522.923 1684.94 528.419 L 1684.34 528.849 C 1680.68 531.538 1678.84 531.175 1674.25 531.099 C 1667.4 531.038 1660.2 531.223 1653.32 531.297 C 1663.57 518.149 1677.04 503.45 1688.18 490.73 z"/>
</svg>