<svg width="635" height="245" viewBox="0 0 635 245" fill="none" xmlns="http://www.w3.org/2000/svg">
<path d="M0 0H635V245H0V0Z" fill="white"/>
<path d="M75.5634 103.079L197.85 103.073L197.989 141.116C184.383 141.416 169.919 141.156 156.259 141.158L75.6411 141.167C75.1226 129.74 75.5503 114.722 75.5634 103.079Z" fill="#CB1C1E"/>
<path d="M442.212 103.592C465.78 100.482 469.522 136.897 447.991 141.822C442.965 142.098 439.095 141.978 434.773 138.768C426.636 132.724 425.311 118.7 430.993 110.411C433.758 106.375 437.611 104.337 442.212 103.592Z" fill="black"/>
<path d="M444.232 109.764C456.307 109.79 458.717 131.783 446.327 135.402C432.17 135.645 431.245 112.581 444.232 109.764Z" fill="white"/>
<path d="M278.168 103.994C281.949 103.567 285.182 103.502 288.608 105.438C300.019 111.889 299.935 132.959 288.905 139.762C287.493 140.632 285.971 141.105 284.421 141.592C263.702 145.248 257.963 110.677 278.168 103.994Z" fill="black"/>
<path d="M279.05 106.82C296.655 105.235 298.262 133.759 283.921 138.549C281.408 138.841 279.593 138.831 277.26 137.766C267.562 133.34 266.753 115.245 274.918 108.888C276.177 107.908 277.585 107.371 279.05 106.82Z" fill="white"/>
<path d="M397.324 104.169C406.617 104.115 423.315 101.447 421.534 116.478C421.209 119.222 419.111 120.941 417.15 122.327C423.239 125.301 423.799 129.135 421.617 135.397C416.677 143.162 405.219 141.223 397.276 141.176L397.324 104.169Z" fill="black"/>
<path d="M404.508 125.389C409.445 125.315 418.33 125.172 413.843 133.395C411.461 135.349 407.47 134.871 404.48 134.811L404.508 125.389Z" fill="white"/>
<path d="M404.508 110.47C409.275 110.346 417.982 110.67 412.897 118.479C409.821 119.987 407.832 119.698 404.48 119.73L404.508 110.47Z" fill="white"/>
<path d="M551.932 104.163L559.378 104.19C559.347 114.5 559.516 129.831 559.295 140.585C559.13 140.778 558.961 140.972 558.795 141.166L551.887 141.178L551.932 125.166C547.769 125.212 543.436 125.108 539.259 125.07L539.235 141.177L531.454 141.154C531.661 129.021 531.512 116.355 531.516 104.185L539.214 104.203L539.235 118.853L551.918 118.798L551.932 104.163Z" fill="black"/>
<path d="M476.603 103.562C482.52 103.077 485.799 103.85 490.718 107.298C489.617 109.072 488.468 110.814 487.28 112.523C485.44 111.36 483.438 110.202 481.298 109.829C478.726 109.382 474.835 110.299 474.6 113.606C475.595 117.086 482.281 118.839 485.23 120.814C495.096 127.426 491.758 139.271 480.787 141.863C474.214 141.988 471.435 141.889 465.911 137.757C467.109 136.104 468.3 134.077 469.391 132.317C469.664 132.513 469.943 132.705 470.223 132.892C473.15 134.852 483.631 138.78 482.955 129.756C482.81 127.784 475.909 124.957 473.775 123.952C467.686 121.081 465.393 115.568 468.438 109.017C469.871 105.947 473.482 104.452 476.603 103.562Z" fill="black"/>
<path d="M511.445 103.584C517.21 102.799 521.888 104.023 526.555 107.563L523.217 113.001C516.589 108.237 507.489 108.603 504.368 117.641C501.044 127.265 507.551 137.914 517.807 134.665C519.706 134.064 521.001 133.451 522.817 132.516C523.058 132.384 523.227 132.444 523.555 132.448C524.55 133.76 525.796 136.099 526.659 137.614C515.45 145.678 499.014 142.84 496.252 127.48C494.019 115.041 499.963 105.965 511.445 103.584Z" fill="black"/>
<path d="M238.789 104.199C245.219 104.138 258.363 102.626 259.596 112.414C260.11 116.499 257.796 122.843 253.235 122.947L252.698 123.601C256.422 126.532 260.043 136.113 261.735 140.786L261.345 141.165C260.058 141.248 259.817 141.29 258.6 140.874C257.517 140.024 257.183 138.631 256.651 137.243C252.627 127.277 253.095 124.703 242.141 124.71C242.117 129.032 242.308 135.635 242.159 140.128C242.142 140.635 241.359 140.991 240.971 141.219C239.631 141.204 240.037 141.392 238.982 140.729C238.542 138.411 238.727 131.202 238.733 128.515L238.789 104.199Z" fill="black"/>
<path d="M242.087 107.181C246.005 107.097 250.225 106.623 253.675 108.995C257.717 111.775 256.438 116.084 254.019 119.486C250.256 122.404 246.723 121.818 242.132 121.78L242.087 107.181Z" fill="white"/>
<path d="M340.774 104.059C342.183 104.086 343.267 103.977 344.548 104.57C346.771 109.414 349.498 118.582 351.49 123.945C352.695 127.192 356.468 137.763 357.058 140.666L356.678 141.106C355.588 141.19 355.443 141.252 354.424 140.917C352.474 139.186 351.245 133.679 350.112 130.685L344.34 130.744L334.761 130.724C333.884 133.723 332.396 142.594 328.336 140.94C327.929 139.727 339.732 106.834 340.774 104.059Z" fill="black"/>
<path d="M342.39 108.457C343.391 109.694 348.359 125.206 349.17 127.619L343.246 127.547L335.876 127.578L342.39 108.457Z" fill="white"/>
<path d="M362.475 104.126C366.462 104.067 366.054 103.872 368.136 107.557C373.487 117.042 378.568 126.725 383.985 136.169C383.595 126.359 383.964 116.068 383.716 106.217C383.695 105.318 383.954 104.847 384.472 104.213C385.908 104.191 385.78 103.942 386.719 104.648C387.147 108.246 386.94 113.919 386.936 117.758L386.926 141.083C385.963 141.223 384.475 141.364 383.55 141.064C381.993 140.56 367.439 112.966 365.433 109.308C365.913 116.761 365.664 132.085 365.751 140.161C365.754 140.684 364.839 141.045 364.38 141.273C363.182 141.185 363.541 141.384 362.678 140.697C362.247 136.45 362.409 130.855 362.419 126.502L362.475 104.126Z" fill="black"/>
<path d="M310.62 103.97C314.182 103.562 321.284 103.618 323.22 107.369C323.182 108.69 322.906 108.624 321.974 109.821C317.241 106.507 310.944 104.27 307.145 110.891C304.147 116.758 314.355 120.04 317.597 121.774C327.601 127.118 325.985 138.923 315.256 141.78C309.671 142.124 307.073 141.241 302.405 138.091C302.982 136.995 303.56 136.305 304.297 135.339C309.225 139.042 317.348 141.272 320.348 133.364C322.492 127.075 313.716 124.041 309.867 122.098C300.883 117.56 301.01 107.714 310.62 103.97Z" fill="black"/>
</svg>
